# xmcd CD database file
#
# Track frame offsets:
#	150
#	8678
#	22787
#	25761
#	31431
#	47160
#	69116
#	87702
#	107820
#	138129
#	162756
#	184531
#	200454
#	209743
#	224107
#	240596
#
# Disc length: 3389 seconds
#
# Revision: 2
# Processed by: cddbd v1.5PL3 Copyright (c) Steve Scherf et al.
# Submitted via: CDex 1.50
#
DISCID=d70d3b10
DTITLE=The Cream - The Cream Remasters 3 - Disraeli Gears Live [CD1]
DYEAR=2004
DGENRE=Psychedelic Rock
TTITLE0=Intro/Hey Lawdy mama (bbc)
TTITLE1=Strange Brew (bbc)
TTITLE2=Interview w/Clapton
TTITLE3=Intro (Marquee Club)
TTITLE4=Tales of Brave Ulysses
TTITLE5=World of Pain
TTITLE6=Outside Woman Blues
TTITLE7=Dance The Night Away
TTITLE8=Sleepy Time Time
TTITLE9=Sweet Wine
TTITLE10=Rollin' and Tumblin'
TTITLE11=N.S.U.
TTITLE12=I Feel Free (bbc)
TTITLE13=Take It Back (bbc)
TTITLE14=Intro/Steppin' Out (bbc)
TTITLE15=Tales of Brave Ulysses (bbc)
EXTD=YEAR: 2004
EXTT0=
EXTT1=
EXTT2=
EXTT3=
EXTT4=
EXTT5=
EXTT6=
EXTT7=
EXTT8=
EXTT9=
EXTT10=
EXTT11=
EXTT12=
EXTT13=
EXTT14=
EXTT15=
PLAYORDER=
